M48
; DRILL file {KiCad 8.0.4-8.0.4-0~ubuntu22.04.1} date 2024-09-04T14:28:59+0200
; FORMAT={-:-/ absolute / inch / decimal}
; #@! TF.CreationDate,2024-09-04T14:28:59+02:00
; #@! TF.GenerationSoftware,Kicad,Pcbnew,8.0.4-8.0.4-0~ubuntu22.04.1
; #@! TF.FileFunction,Plated,1,4,PTH
FMAT,2
INCH
; #@! TA.AperFunction,Plated,PTH,ViaDrill
T1C0.0079
; #@! TA.AperFunction,Plated,PTH,ComponentDrill
T2C0.0079
; #@! TA.AperFunction,Plated,PTH,ViaDrill
T3C0.0098
; #@! TA.AperFunction,Plated,PTH,ComponentDrill
T4C0.0276
; #@! TA.AperFunction,Plated,PTH,ComponentDrill
T5C0.0315
; #@! TA.AperFunction,Plated,PTH,ComponentDrill
T6C0.0350
; #@! TA.AperFunction,Plated,PTH,ComponentDrill
T7C0.0354
; #@! TA.AperFunction,Plated,PTH,ComponentDrill
T8C0.0394
; #@! TA.AperFunction,Plated,PTH,ComponentDrill
T9C0.0472
; #@! TA.AperFunction,Plated,PTH,ComponentDrill
T10C0.0787
; #@! TA.AperFunction,Plated,PTH,ComponentDrill
T11C0.0866
%
G90
G05
T1
X3.6042Y-3.0598
X3.6319Y-3.0598
X3.8543Y-3.058
X3.882Y-3.058
X4.311Y-4.0945
X4.311Y-4.1339
X4.439Y-1.9685
X4.4882Y-3.5236
X4.4882Y-4.0354
X4.5177Y-1.9685
X4.5177Y-1.9882
X4.5276Y-3.563
X4.5453Y-2.0492
X4.5669Y-2.0866
X4.6063Y-3.2776
X4.6161Y-2.0866
X4.6654Y-4.252
X4.685Y-4.0748
X4.8622Y-4.0748
T2
X3.8161Y-3.8413
X3.8161Y-3.8807
X3.8161Y-3.9201
X3.8555Y-3.8413
X3.8555Y-3.8807
X3.8555Y-3.9201
X3.8949Y-3.8413
X3.8949Y-3.8807
X3.8949Y-3.9201
T3
X3.4252Y-1.7717
X3.4252Y-1.8701
X3.4252Y-1.9685
X3.4252Y-2.0669
X3.4252Y-2.1654
X3.4252Y-2.2638
X3.4252Y-2.3622
X3.4252Y-2.4606
X3.4252Y-2.5591
X3.4252Y-2.6575
X3.4252Y-2.7559
X3.4252Y-2.8543
X3.4252Y-2.9528
X3.4252Y-3.0512
X3.4252Y-3.1496
X3.4252Y-3.248
X3.4252Y-3.3465
X3.4252Y-3.4449
X3.4252Y-3.5433
X3.4252Y-3.6417
X3.4252Y-3.7402
X3.4252Y-3.8386
X3.4252Y-3.937
X3.4252Y-4.0354
X3.4252Y-4.1339
X3.4252Y-4.2323
X3.4252Y-4.3307
X3.4252Y-4.4291
X3.4252Y-4.5276
X3.4252Y-4.626
X3.4252Y-4.7244
X3.4252Y-4.8228
X3.4252Y-4.9213
X3.4252Y-5.0197
X3.4252Y-5.1181
X3.4252Y-5.2165
X3.4252Y-5.315
X3.4252Y-5.4134
X3.4252Y-5.5118
X3.4252Y-5.6102
X3.4252Y-5.7087
X3.4252Y-5.8071
X3.4252Y-5.8661
X3.4646Y-5.2953
X3.4941Y-4.4882
X3.5039Y-1.7717
X3.5236Y-5.8661
X3.5335Y-4.3996
X3.5429Y-3.5925
X3.5429Y-3.6713
X3.5531Y-3.6319
X3.5531Y-3.7992
X3.5531Y-3.8976
X3.5531Y-4.0059
X3.5728Y-4.0945
X3.5728Y-4.1142
X3.5728Y-4.311
X3.5827Y-3.7697
X3.5827Y-4.0354
X3.5925Y-4.0059
X3.6024Y-1.7717
X3.6024Y-4.9213
X3.6122Y-3.7697
X3.622Y-3.5531
X3.622Y-5.8661
X3.6319Y-4.0354
X3.6417Y-3.5531
X3.6417Y-4.9213
X3.6614Y-4.5866
X3.6614Y-4.7244
X3.6713Y-3.7697
X3.6811Y-4.9213
X3.7008Y-1.7717
X3.7008Y-3.5236
X3.7008Y-4.4193
X3.701Y-3.9923
X3.7106Y-4.0945
X3.7106Y-4.1142
X3.7106Y-4.5866
X3.7205Y-3.7205
X3.7205Y-3.8701
X3.7205Y-4.9213
X3.7205Y-5.8661
X3.7402Y-3.7205
X3.7402Y-3.9331
X3.7402Y-4.0571
X3.7441Y-3.8425
X3.748Y-3.8701
X3.75Y-4.1634
X3.7598Y-3.7205
X3.7697Y-2.9823
X3.7992Y-1.7717
X3.8189Y-5.8661
X3.8287Y-2.5098
X3.8583Y-3.5531
X3.8583Y-4.0748
X3.8583Y-5.2953
X3.878Y-3.5531
X3.878Y-4.1043
X3.8976Y-1.7717
X3.9173Y-5.8661
X3.937Y-3.5236
X3.9567Y-4.3996
X3.9567Y-4.4193
X3.9862Y-3.75
X3.9961Y-1.7717
X4.0157Y-5.8661
X4.0453Y-4.0354
X4.0551Y-3.6319
X4.0551Y-3.8878
X4.0748Y-3.2972
X4.0752Y-3.5925
X4.0752Y-3.6713
X4.0945Y-1.7717
X4.0945Y-4.0059
X4.1142Y-5.8661
X4.1299Y-4.0354
X4.1339Y-5.2165
X4.1614Y-4.0551
X4.163Y-3.8583
X4.1634Y-2.6969
X4.1634Y-3.8976
X4.1831Y-5.0787
X4.185Y-3.9646
X4.1929Y-1.7717
X4.1929Y-3.3563
X4.2087Y-4.0236
X4.2126Y-3.3563
X4.2126Y-5.8661
X4.2205Y-3.9646
X4.2323Y-3.3563
X4.2323Y-4.1142
X4.2717Y-2.5098
X4.2717Y-3.6811
X4.2717Y-3.7126
X4.2717Y-3.7795
X4.2795Y-3.7402
X4.2913Y-1.7717
X4.2913Y-3.7992
X4.3012Y-3.5827
X4.3012Y-3.622
X4.311Y-3.8189
X4.311Y-3.937
X4.311Y-5.8661
X4.3307Y-3.2579
X4.3307Y-3.3563
X4.3406Y-2.9724
X4.3406Y-5.0197
X4.3504Y-3.1791
X4.3504Y-3.2579
X4.3504Y-3.3563
X4.3602Y-3.5039
X4.3701Y-3.5335
X4.3898Y-1.7717
X4.3898Y-4.0945
X4.4094Y-4.0945
X4.4094Y-5.8661
X4.4193Y-4.439
X4.4291Y-3.5433
X4.4488Y-4.439
X4.4587Y-1.9685
X4.4587Y-1.9882
X4.4685Y-4.813
X4.4685Y-4.8327
X4.4783Y-1.9685
X4.4783Y-1.9882
X4.4783Y-2.0768
X4.4783Y-2.0965
X4.4783Y-4.439
X4.4882Y-1.7717
X4.4882Y-3.5039
X4.4882Y-3.5433
X4.4931Y-4.0896
X4.498Y-1.9685
X4.498Y-1.9882
X4.498Y-3.5925
X4.5079Y-3.7598
X4.5079Y-4.439
X4.5079Y-4.813
X4.5079Y-4.8327
X4.5079Y-5.8661
X4.5177Y-1.8209
X4.5177Y-2.1949
X4.5177Y-2.2441
X4.5177Y-2.3819
X4.5276Y-3.3268
X4.5276Y-4.0433
X4.5374Y-1.8209
X4.5374Y-2.2441
X4.5374Y-2.3819
X4.5374Y-4.2815
X4.5374Y-4.439
X4.5472Y-3.3268
X4.5472Y-3.3465
X4.5571Y-2.2441
X4.5571Y-2.3819
X4.5571Y-3.376
X4.5669Y-4.439
X4.5768Y-2.2441
X4.5768Y-2.3819
X4.5866Y-1.7717
X4.5965Y-2.1161
X4.5965Y-2.2441
X4.5965Y-2.3819
X4.5965Y-4.311
X4.6063Y-5.8661
X4.6142Y-4.0079
X4.6161Y-2.1161
X4.6161Y-2.2441
X4.6161Y-2.3819
X4.6161Y-4.311
X4.6161Y-4.3701
X4.6161Y-4.4193
X4.626Y-4.4587
X4.6358Y-2.1161
X4.6457Y-1.8209
X4.6457Y-2.372
X4.6457Y-3.4646
X4.6555Y-2.1161
X4.6555Y-2.2244
X4.6654Y-1.8209
X4.6654Y-2.372
X4.6654Y-3.3169
X4.6654Y-4.1732
X4.6752Y-1.8996
X4.6752Y-2.1161
X4.685Y-2.2047
X4.685Y-2.372
X4.685Y-4.4587
X4.6949Y-1.7717
X4.6969Y-3.9409
X4.7047Y-5.8661
X4.7244Y-3.563
X4.7343Y-1.9488
X4.7343Y-1.9685
X4.7343Y-4.065
X4.7343Y-4.4587
X4.7441Y-3.5827
X4.7539Y-1.9488
X4.7539Y-1.9685
X4.7539Y-2.1161
X4.7539Y-2.2933
X4.7638Y-3.6024
X4.7736Y-2.1161
X4.7835Y-1.7717
X4.7835Y-4.1929
X4.7835Y-4.4587
X4.8031Y-4.0669
X4.8031Y-5.8661
X4.8228Y-3.3465
X4.8327Y-4.4587
X4.8425Y-3.7598
X4.8425Y-4.3701
X4.8425Y-4.4193
X4.8524Y-2.0276
X4.8524Y-2.2047
X4.8524Y-3.3563
X4.8622Y-2.3425
X4.8622Y-3.3169
X4.872Y-2.2047
X4.872Y-4.2224
X4.872Y-4.2421
X4.8819Y-1.7717
X4.8819Y-2.3425
X4.8917Y-2.0276
X4.8917Y-2.2047
X4.9016Y-3.3858
X4.9016Y-5.8661
X4.9114Y-2.2047
X4.9213Y-2.3425
X4.9252Y-4.0748
X4.9311Y-2.0965
X4.9311Y-2.1161
X4.9311Y-2.2047
X4.9409Y-2.3425
X4.9409Y-3.3858
X4.9508Y-2.0965
X4.9508Y-2.1161
X4.9508Y-2.2047
X4.9508Y-2.4902
X4.9606Y-3.9764
X4.9626Y-3.565
X4.9705Y-2.0965
X4.9705Y-2.1161
X4.9705Y-4.2717
X4.9803Y-1.7717
X4.9803Y-3.3858
X4.9882Y-3.563
X4.9902Y-4.0748
X4.998Y-3.6437
X5.0Y-3.6024
X5.0Y-5.8661
X5.0197Y-3.4449
X5.0197Y-4.0846
X5.0689Y-1.998
X5.0689Y-2.0374
X5.0689Y-3.563
X5.0689Y-4.5965
X5.0689Y-4.6161
X5.0689Y-4.6949
X5.0689Y-4.7146
X5.0787Y-1.7717
X5.0886Y-3.563
X5.0886Y-3.5827
X5.0984Y-5.8661
X5.1181Y-4.1043
X5.1476Y-2.5197
X5.1575Y-4.1043
X5.1772Y-1.7717
X5.187Y-3.5236
X5.187Y-3.563
X5.1969Y-3.7992
X5.1969Y-3.8484
X5.1969Y-5.8661
X5.2362Y-4.0157
X5.2657Y-3.6122
X5.2657Y-3.6319
X5.2756Y-1.7717
X5.2854Y-3.9567
X5.2953Y-5.8661
X5.374Y-1.7717
X5.3839Y-3.248
X5.3839Y-3.2677
X5.3858Y-4.1299
X5.3937Y-3.8484
X5.3937Y-5.8661
X5.4035Y-3.248
X5.4035Y-3.2677
X5.4035Y-4.1831
X5.4232Y-3.248
X5.4232Y-3.2677
X5.4331Y-4.1831
X5.4626Y-4.7638
X5.4724Y-1.7717
X5.4823Y-2.0965
X5.4823Y-2.1161
X5.4823Y-2.1358
X5.4823Y-3.8976
X5.4823Y-3.9469
X5.4823Y-5.0591
X5.4843Y-4.0433
X5.4921Y-5.8661
X5.502Y-2.0965
X5.502Y-2.1161
X5.502Y-2.1358
X5.5118Y-5.1969
X5.5315Y-2.0669
X5.5315Y-2.0866
X5.5315Y-4.0453
X5.5315Y-4.1437
X5.5512Y-2.0669
X5.5512Y-2.0866
X5.5512Y-3.7008
X5.561Y-2.5689
X5.561Y-2.5886
X5.561Y-2.687
X5.561Y-2.7067
X5.5709Y-1.7717
X5.5709Y-2.2736
X5.5709Y-2.2933
X5.5709Y-2.313
X5.5709Y-2.3622
X5.5709Y-2.3819
X5.5709Y-2.4016
X5.5709Y-2.4508
X5.5709Y-2.4705
X5.5709Y-2.4902
X5.5709Y-3.7992
X5.5807Y-2.5689
X5.5807Y-2.5886
X5.5807Y-2.687
X5.5807Y-2.7067
X5.5906Y-2.2736
X5.5906Y-2.2933
X5.5906Y-2.313
X5.5906Y-2.3622
X5.5906Y-2.3819
X5.5906Y-2.4016
X5.5906Y-2.4508
X5.5906Y-2.4705
X5.5906Y-2.4902
X5.5906Y-4.1437
X5.5906Y-5.8661
X5.6004Y-4.6752
X5.6102Y-2.4409
X5.6102Y-3.2579
X5.6102Y-3.2776
X5.6102Y-3.2972
X5.6102Y-3.3169
X5.6102Y-4.0551
X5.6299Y-2.0276
X5.6299Y-2.3228
X5.6299Y-3.2579
X5.6299Y-3.2776
X5.6299Y-3.2972
X5.6299Y-3.3169
X5.6299Y-3.3366
X5.6299Y-5.2756
X5.6398Y-4.5866
X5.6496Y-2.0276
X5.6496Y-5.0
X5.6693Y-1.7717
X5.6693Y-2.0276
X5.6693Y-3.8091
X5.6791Y-3.9717
X5.6791Y-4.5866
X5.689Y-2.0276
X5.689Y-5.8661
X5.6988Y-2.874
X5.6988Y-3.0709
X5.7382Y-3.7008
X5.748Y-4.5866
X5.7579Y-3.7008
X5.7677Y-1.7717
X5.7677Y-3.8287
X5.7677Y-4.9114
X5.7726Y-4.5965
X5.7756Y-2.6496
X5.7756Y-2.6693
X5.7874Y-5.8661
X5.7953Y-2.6496
X5.7953Y-2.6693
X5.7972Y-3.0315
X5.7972Y-3.7303
X5.7972Y-4.5866
X5.8071Y-4.9114
X5.815Y-2.6496
X5.815Y-2.6693
X5.8268Y-4.4488
X5.8268Y-4.5866
X5.8268Y-4.6358
X5.8268Y-4.7244
X5.8465Y-4.6358
X5.8465Y-4.9114
X5.8661Y-1.7717
X5.8661Y-2.0669
X5.8858Y-4.9114
X5.8858Y-5.8661
X5.9449Y-3.9567
X5.9547Y-3.9173
X5.9646Y-1.7717
X5.9843Y-5.8661
X6.0039Y-2.2835
X6.0039Y-2.3031
X6.0236Y-2.2835
X6.0236Y-2.3031
X6.0236Y-5.2756
X6.0335Y-2.0768
X6.0335Y-2.0965
X6.0433Y-1.9882
X6.0433Y-2.0079
X6.0433Y-2.2835
X6.0433Y-2.3031
X6.063Y-1.7717
X6.063Y-1.8701
X6.063Y-1.9685
X6.063Y-1.9882
X6.063Y-2.0079
X6.063Y-2.0669
X6.063Y-2.1654
X6.063Y-2.2638
X6.063Y-2.3622
X6.063Y-2.4606
X6.063Y-2.5591
X6.063Y-2.6575
X6.063Y-2.7559
X6.063Y-2.8543
X6.063Y-2.9528
X6.063Y-3.0512
X6.063Y-3.1496
X6.063Y-3.248
X6.063Y-3.3465
X6.063Y-3.4449
X6.063Y-3.5433
X6.063Y-3.6417
X6.063Y-3.7402
X6.063Y-3.8386
X6.063Y-3.937
X6.063Y-4.0354
X6.063Y-4.1339
X6.063Y-4.2323
X6.063Y-4.3307
X6.063Y-4.3307
X6.063Y-4.4291
X6.063Y-4.5276
X6.063Y-4.626
X6.063Y-4.7244
X6.063Y-4.8228
X6.063Y-4.9213
X6.063Y-5.0197
X6.063Y-5.1181
X6.063Y-5.2165
X6.063Y-5.315
X6.063Y-5.4134
X6.063Y-5.5118
X6.063Y-5.6102
X6.063Y-5.7087
X6.063Y-5.8071
X6.063Y-5.8661
T4
X4.8031Y-1.9291
X5.1031Y-1.9291
T6
X3.7374Y-2.2764
X3.828Y-2.2764
X4.1862Y-2.2764
X4.2768Y-2.2764
T7
X3.8465Y-2.1339
X3.8866Y-2.063
X3.9268Y-2.1339
X3.9669Y-2.063
X4.0071Y-2.1339
X4.0472Y-2.063
X4.0874Y-2.1339
X4.1276Y-2.063
T8
X3.9945Y-2.774
X3.9945Y-2.974
X3.9945Y-4.6638
X3.9945Y-4.8638
X4.0945Y-2.774
X4.0945Y-2.974
X4.0945Y-4.6638
X4.0945Y-4.8638
X4.1945Y-2.774
X4.1945Y-2.974
X4.1945Y-4.6638
X4.1945Y-4.8638
X4.6457Y-3.1713
X4.7441Y-3.1713
X4.8425Y-3.1713
X5.2937Y-1.8291
X5.2937Y-1.9291
X5.2937Y-2.774
X5.2937Y-2.974
X5.2937Y-4.6638
X5.2937Y-4.8638
X5.3937Y-1.8291
X5.3937Y-1.9291
X5.3937Y-2.774
X5.3937Y-2.974
X5.3937Y-4.6638
X5.3937Y-4.8638
X5.4937Y-1.8291
X5.4937Y-1.9291
X5.4937Y-2.774
X5.4937Y-2.974
X5.4937Y-4.6638
X5.4937Y-4.8638
X5.5937Y-1.8291
X5.5937Y-1.9291
X5.6937Y-1.8291
X5.6937Y-1.9291
T9
X3.7571Y-1.9646
X4.2571Y-1.9646
T11
X3.5335Y-2.1063
X3.5433Y-5.748
X5.9449Y-5.748
T4
G00X4.4478Y-1.8375
M15
G01X4.4478Y-1.8532
M16
G05
G00X4.7333Y-1.8375
M15
G01X4.7333Y-1.8532
M16
G05
T5
G00X3.9567Y-5.1654
M15
G01X3.9567Y-5.0709
M16
G05
G00X3.9567Y-5.6378
M15
G01X3.9567Y-5.5433
M16
G05
G00X4.1417Y-4.9921
M15
G01X4.0472Y-4.9921
M16
G05
G00X4.0472Y-5.3189
M15
G01X4.1417Y-5.3189
M16
G05
G00X4.1417Y-5.4646
M15
G01X4.0472Y-5.4646
M16
G05
G00X4.0472Y-5.7913
M15
G01X4.1417Y-5.7913
M16
G05
G00X4.3898Y-5.1654
M15
G01X4.3898Y-5.0709
M16
G05
G00X4.3898Y-5.6378
M15
G01X4.3898Y-5.5433
M16
G05
G00X4.5748Y-4.9921
M15
G01X4.4803Y-4.9921
M16
G05
G00X4.4803Y-5.3189
M15
G01X4.5748Y-5.3189
M16
G05
G00X4.5748Y-5.4646
M15
G01X4.4803Y-5.4646
M16
G05
G00X4.4803Y-5.7913
M15
G01X4.5748Y-5.7913
M16
G05
G00X4.8228Y-5.1654
M15
G01X4.8228Y-5.0709
M16
G05
G00X4.8228Y-5.6378
M15
G01X4.8228Y-5.5433
M16
G05
G00X5.0079Y-4.9921
M15
G01X4.9134Y-4.9921
M16
G05
G00X4.9134Y-5.3189
M15
G01X5.0079Y-5.3189
M16
G05
G00X5.0079Y-5.4646
M15
G01X4.9134Y-5.4646
M16
G05
G00X4.9134Y-5.7913
M15
G01X5.0079Y-5.7913
M16
G05
G00X5.2559Y-5.1654
M15
G01X5.2559Y-5.0709
M16
G05
G00X5.2559Y-5.6378
M15
G01X5.2559Y-5.5433
M16
G05
G00X5.4409Y-4.9921
M15
G01X5.3465Y-4.9921
M16
G05
G00X5.3465Y-5.3189
M15
G01X5.4409Y-5.3189
M16
G05
G00X5.4409Y-5.4646
M15
G01X5.3465Y-5.4646
M16
G05
G00X5.3465Y-5.7913
M15
G01X5.4409Y-5.7913
M16
G05
T10
G00X4.5236Y-2.8858
M15
G01X4.5236Y-2.8661
M16
G05
G00X4.9646Y-2.8858
M15
G01X4.9646Y-2.8661
M16
G05
M30
